<svg width="440" height="153" viewBox="0 0 440 153" fill="none" xmlns="http://www.w3.org/2000/svg">
<path d="M57.2 24.3H28.3L28.7 24.5C29.5667 25.0333 30 25.4667 30 25.8C30 26.1333 29.8333 26.3667 29.5 26.5C29.2333 26.6333 28.5333 26.7 27.4 26.7C25.6 28.6333 23.3667 30.4667 20.7 32.2C23.1 33.8667 24.3 35.6 24.3 37.4C24.3 38.6 23.8333 39.2 22.9 39.2C22.4333 39.2 21.8333 38.8 21.1 38C17.8333 34 14.1333 30.9 10 28.7L10.3 27.7C13.3 28.4333 16.3667 29.7 19.5 31.5C21.6333 29.0333 23.3333 26.6333 24.6 24.3H6C4.13333 24.3 2.50001 24.4 1.10001 24.6L0 21.5C2.4 21.6333 4.53333 21.7 6.4 21.7H27.5V16.4H13.3C11.3 16.4 9.6 16.4667 8.2 16.6L7.2 13.5C9.66667 13.7 11.8 13.8 13.6 13.8H27.5V8.4H10.5C8.56667 8.4 6.9 8.5 5.5 8.7L4.5 5.6C7.1 5.8 9.23333 5.9 10.9 5.9H27.5C27.5 3.63333 27.4 1.8 27.2 0.400002L32 0.900002C33.0667 1.03333 33.6 1.4 33.6 2C33.6 2.53333 32.8 3.1 31.2 3.7V5.9H46.4L48.3 3.1C48.5667 2.76667 48.8333 2.6 49.1 2.6C49.3 2.6 49.5667 2.76667 49.9 3.1L53.7 6.4C54.0333 6.8 54.2 7.16667 54.2 7.5C54.2 8.1 53.7667 8.4 52.9 8.4H31.2V13.8H44.1L46 11C46.2667 10.6667 46.5333 10.5 46.8 10.5C47 10.5 47.2667 10.6333 47.6 10.9L51.4 14.3C51.7333 14.7 51.9 15.0667 51.9 15.4C51.9 16.0667 51.4667 16.4 50.6 16.4H31.2V21.7H50.8L52.7 19C52.9 18.6667 53.1667 18.5 53.5 18.5C53.7 18.5 53.9667 18.6333 54.3 18.9L58 22.3C58.4 22.6333 58.6 22.9667 58.6 23.3C58.6 23.9667 58.1333 24.3 57.2 24.3ZM42.3 39.5L48 39.1C45.8667 36.9 43.6333 35.0667 41.3 33.6L41.9 32.7C45.4333 34.0333 48.6667 35.7333 51.6 37.8C54.1333 39.6 55.4 41.4333 55.4 43.3C55.4 44.7 54.9 45.4 53.9 45.4C53.4333 45.4 52.9 45.0333 52.3 44.3C51.7 43.3667 50.7 42.1333 49.3 40.6C46.5667 41 42.5667 41.4667 37.3 42L31.3 42.5V48.6C31.3 49.5333 31.3333 51.9667 31.4 55.9C31.4 56.3667 31.4 56.7 31.4 56.9C31.4 57.7 31.1667 58.2 30.7 58.4C30.2333 58.6667 29.6 58.8 28.8 58.8C27.9333 58.8 27.5 58.3667 27.5 57.5C27.5 57.3667 27.5 57.0667 27.5 56.6C27.5667 54.0667 27.6 51.4 27.6 48.6V42.9L21.5 43.4C17.5 43.7333 12.7333 44.0667 7.2 44.4C6.86667 45.4667 6.4 46 5.8 46C5.4 46 5.06667 45.5 4.8 44.5L3.4 40.1C6.4 40.3 10.2667 40.4 15 40.4C15.3333 40.4 18.8333 40.3333 25.5 40.2C30.1 35.7333 33.5667 31.5667 35.9 27.7C36.2333 27.1 36.5333 26.5333 36.8 26L40.2 28.2C41 28.7333 41.4 29.2 41.4 29.6C41.4 30.1333 41.0333 30.4 40.3 30.4C40.1 30.4 39.5667 30.4 38.7 30.4C35.4333 34.1333 31.7667 37.3667 27.7 40.1H29.2C32.6667 40.0333 37.0333 39.8333 42.3 39.5ZM17.7 45.4L21.1 47.8C21.7667 48.2 22.1 48.6 22.1 49C22.1 49.5333 21.6667 49.8 20.8 49.8C20.4667 49.8 19.9667 49.7667 19.3 49.7C14.3667 53.6333 9.03334 56.7667 3.3 59.1L2.8 58.2C8.46667 54.7333 13.0333 51 16.5 47C16.7667 46.6 17.1667 46.0667 17.7 45.4ZM37.7 46.4L38 45.5C42.8667 46.7667 46.7667 48.3 49.7 50.1C53.0333 52.1667 54.7 54.1667 54.7 56.1C54.7 57.3 54.2333 57.9 53.3 57.9C52.7 57.9 52 57.4667 51.2 56.6C49.0667 54.4667 46.8 52.5 44.4 50.7C43.1333 49.7 40.9 48.2667 37.7 46.4Z" fill="black"/>
<path d="M82.6 31.2V36.8H84.5L85.4 35.6C85.6667 35.2667 85.9 35.1 86.1 35.1C86.3 35.1 86.5667 35.2333 86.9 35.5L88.7 37.4C89.0333 37.8 89.2 38.1333 89.2 38.4C89.2 38.8 88.7333 39.2333 87.8 39.7V42.7C87.8 44.2333 87.8667 45.7667 88 47.3C88 47.5667 88 47.8333 88 48.1C88 49.3 87.3 49.9 85.9 49.9C85.1667 49.9 84.8 49.5333 84.8 48.8V48.1H77.9V49.4C77.9 50.4 77.2333 50.9 75.9 50.9C75.1 50.9 74.7 50.5667 74.7 49.9C74.7 49.8333 74.7 49.5667 74.7 49.1C74.7667 48.1 74.8 46.8 74.8 45.2V41.6C74.8 39.4 74.7333 37.2333 74.6 35.1L77.8 36.8H79.6V31.2H78.5C76.9 31.2 75.2333 31.3 73.5 31.5L72.4 28.4C75 28.6 77.1333 28.7 78.8 28.7H79.6V28.1C79.6 26.5 79.5 24.9 79.3 23.3L82.5 23.9C83.7667 24.0333 84.4 24.3333 84.4 24.8C84.4 25.2667 83.8 25.7 82.6 26.1V28.7H84.4L85.5 27C85.6333 26.6667 85.8667 26.5 86.2 26.5C86.4667 26.5 86.7 26.6333 86.9 26.9L89.4 29.2C89.8 29.5333 90 29.9 90 30.3C90 30.9 89.5667 31.2 88.7 31.2H82.6ZM84.8 45.5V39.3H77.9V45.5H84.8ZM85 19.8H90.5L91.6 18.2C91.8 17.8 92.0333 17.6 92.3 17.6C92.5 17.6 92.7333 17.7333 93 18L96.2 20.7C96.5333 20.9 96.7 21.1667 96.7 21.5C96.7 21.9 96.4333 22.2667 95.9 22.6C95.8333 22.7333 95.4 23.0333 94.6 23.5V46.8C94.6 47.8667 94.6333 49.0667 94.7 50.4C94.7 51.5333 94.7 52.4 94.7 53C94.7 54.4 94.5333 55.4333 94.2 56.1C93.4667 57.2333 91.9333 57.9667 89.6 58.3C89.4667 57.0333 89.1 56.2 88.5 55.8C87.8333 55.3333 86.0667 54.8 83.2 54.2V53.2L88.9 53.4C89.8333 53.4667 90.4667 53.3333 90.8 53C91.0667 52.7333 91.2 52.1667 91.2 51.3V22.4H71.3V47.9C71.3 50.6333 71.3333 53.2333 71.4 55.7C71.4 56.0333 71.4 56.3333 71.4 56.6C71.4 57.6667 70.6 58.2 69 58.2C68.1333 58.2 67.7 57.8 67.7 57L67.8 48V23.7C67.8 21.5667 67.7 19.5 67.5 17.5L72.3 19.8H76C75.6667 19.5333 75.2667 18.8333 74.8 17.7C73.8667 14.9 72.7 12.6333 71.3 10.9L71.8 10.3H70.6C69 10.3 67.3 10.3667 65.5 10.5L64.5 7.5C66.8333 7.63333 68.9667 7.7 70.9 7.7H79.6V6.8C79.6 3.6 79.5 1.33333 79.3 0L83.9 0.700001C84.9667 0.833334 85.5 1.13334 85.5 1.6C85.5 2.2 84.6667 2.76667 83 3.3V7.7H89.7L91.7 4.9C91.9 4.56667 92.1333 4.4 92.4 4.4C92.6667 4.4 92.9333 4.53334 93.2 4.8L96.9 8.2C97.3 8.53333 97.5 8.9 97.5 9.3C97.5 9.96667 97.0667 10.3 96.2 10.3H86.2L89.8 11.4C90.8667 11.7333 91.4 12.1333 91.4 12.6C91.4 13.2 90.6667 13.5333 89.2 13.6C87.8 16 86.4 18.0667 85 19.8ZM77.7 19.8H83.5C84.5667 16.8 85.4333 13.6333 86.1 10.3H72.1C76.5 12.7 78.7 15.1 78.7 17.5C78.7 18.5667 78.3667 19.3333 77.7 19.8ZM121.6 17.4H114.6L118.5 18.7C119.367 18.9667 119.8 19.3667 119.8 19.9C119.8 20.3667 119.467 20.6667 118.8 20.8C118.667 20.8667 118.233 20.9667 117.5 21.1C116.367 29.2333 113.967 36.7333 110.3 43.6C113.967 48.4667 118.567 52.4667 124.1 55.6L123.9 56.6C123.7 56.6 123.567 56.6 123.5 56.6C122.1 56.6667 121.033 56.9 120.3 57.3C119.9 57.5 119.5 57.8333 119.1 58.3C114.567 54.4333 111 50.6 108.4 46.8C104.4 52.6667 99.7333 56.8 94.4 59.2L93.8 58.3C99.2667 54.1 103.6 49.3333 106.8 44C103.4 37.5333 101.333 30.2333 100.6 22.1C99 24.7667 97.4 26.9333 95.8 28.6L95 27.9C99.6 19.9667 102.7 11.4333 104.3 2.3C104.433 1.36667 104.567 0.6 104.7 0L109.2 1.5C110.333 1.76667 110.9 2.13334 110.9 2.6C110.9 3.13334 110.567 3.53334 109.9 3.8C109.767 3.8 109.267 3.83333 108.4 3.9C107.333 7.36667 106 11 104.4 14.8H114.8L116.8 11.8C117 11.4667 117.233 11.3 117.5 11.3C117.767 11.3 118.067 11.4667 118.4 11.8L122.3 15.4C122.7 15.7333 122.9 16.1 122.9 16.5C122.9 17.1 122.467 17.4 121.6 17.4ZM114 17.4H103.2C102.867 18 102.4 18.9 101.8 20.1C102.8 27.8333 105 34.7667 108.4 40.9C111.6 34.1 113.467 26.2667 114 17.4Z" fill="black"/>
<path d="M157.1 55.3C153.967 55.3 151.5 54.7 149.7 53.5C147.7 52.2333 146.7 50.4667 146.7 48.2C146.7 45.5333 147.933 43.5667 150.4 42.3C152.2 41.3667 154.467 40.9 157.2 40.9C159.733 40.9 162.233 41.2667 164.7 42L164.6 40.1C164.467 36.9667 164.4 34.7 164.4 33.3C164.4 29.9 164.9 27.5333 165.9 26.2C167.167 24.4 169.933 23.0667 174.2 22.2C174.867 22 175.2 21.7667 175.2 21.5C175.2 21.0333 174.167 20.4 172.1 19.6C170.033 18.7333 167.667 18.0667 165 17.6L165.1 16.7C166.167 16.5 167.233 16.4 168.3 16.4C172.7 16.4 176.5 17.6667 179.7 20.2C181.233 21.4 182 22.5667 182 23.7C182 24.2333 181.8 24.6667 181.4 25C181.133 25.3333 180.8 25.5 180.4 25.5C180.067 25.5 179.267 25.2333 178 24.7C177.333 24.5 176.5 24.4 175.5 24.4C173.1 24.4 171.2 24.8333 169.8 25.7C168.267 26.7 167.5 28.8333 167.5 32.1C167.5 33.5 167.633 36.1333 167.9 40C168.033 41.5333 168.1 42.6 168.1 43.2C170.967 44.3333 173.633 45.7667 176.1 47.5C177.833 48.8333 178.7 50.2 178.7 51.6C178.7 52.0667 178.567 52.4667 178.3 52.8C178.033 53.0667 177.733 53.2 177.4 53.2C177.067 53.2 176.6 53.0333 176 52.7C175.867 52.5 175.2 51.9 174 50.9C172.333 49.4333 170.4 48.1333 168.2 47C167.933 52.4 164.233 55.1667 157.1 55.3ZM164.8 45.4C161.933 44.4 159.1 43.9 156.3 43.9C154.033 43.9 152.3 44.3 151.1 45.1C149.967 45.9 149.4 46.8667 149.4 48C149.4 49.3333 150.133 50.3667 151.6 51.1C152.8 51.7667 154.4 52.1 156.4 52.1C159.8 51.9667 162.167 51.2 163.5 49.8C164.367 48.9333 164.8 47.4667 164.8 45.4ZM148.1 13.5L148.5 12.6C149.9 9.26667 150.6 7.2 150.6 6.4C150.6 5.4 149.767 4.46667 148.1 3.6L148.3 2.7C149.033 2.56667 149.567 2.5 149.9 2.5C151.033 2.5 152.267 2.96667 153.6 3.9C154.867 4.9 155.5 5.8 155.5 6.6C155.5 7.06667 155.1 7.8 154.3 8.8C153.633 9.73334 152.833 11.0667 151.9 12.8C154.7 12.2 156.867 11.5667 158.4 10.9C159.2 10.5 159.8 10.3 160.2 10.3C161 10.3 161.767 10.5667 162.5 11.1C163.167 11.5 163.5 11.9667 163.5 12.5C163.5 13.0333 163.1 13.4333 162.3 13.7C161.567 13.9 158.533 14.5333 153.2 15.6C152.267 15.8 151.3 15.9667 150.3 16.1C150.1 16.4333 149.867 16.9333 149.6 17.6C143.933 29.5333 140.1 37.3667 138.1 41.1C137.233 42.6333 136.567 43.6333 136.1 44.1C135.833 44.3667 135.5 44.5 135.1 44.5C134.1 44.5 133.6 43.7 133.6 42.1C133.6 41.3 133.733 40.6 134 40C134.2 39.5333 134.733 38.6667 135.6 37.4C138.933 32.6667 142.633 25.8 146.7 16.8C143.967 17.2667 141.633 17.5 139.7 17.5C137.567 17.5 136 16.9 135 15.7C134.667 15.3 134.3 14.6 133.9 13.6L134.7 13C136.033 13.9333 137.767 14.4 139.9 14.4C142.1 14.4 144.833 14.1 148.1 13.5Z" fill="black"/>
<path d="M30 111.4C34.7333 110.533 38.5333 109.667 41.4 108.8C42 108.6 42.5 108.5 42.9 108.5C44.0333 108.5 45.1333 108.9 46.2 109.7C46.9333 110.167 47.3 110.633 47.3 111.1C47.3 111.833 46.3667 112.233 44.5 112.3C41.7 112.433 37 113.133 30.4 114.4C30.5333 114.933 30.6333 115.733 30.7 116.8L31.7 122.7L31.9 123.8L32.2 126.1L34.5 125.6L36.4 125.3C42.3333 124.167 46.0333 123.367 47.5 122.9C48.5667 122.567 49.2667 122.4 49.6 122.4C50.7333 122.4 52.1333 122.867 53.8 123.8C54.6667 124.267 55.1 124.8 55.1 125.4C55.1 126.2 54.3333 126.6 52.8 126.6C47.9333 126.533 41.2333 127.3 32.7 128.9L33.2 132C33.9333 136.8 34.8 142 35.8 147.6C36 148.667 36.1 149.533 36.1 150.2C36.1 150.733 36 151.167 35.8 151.5C35.5333 152.1 35.1333 152.4 34.6 152.4C33.9333 152.4 33.2 151.833 32.4 150.7C31.5333 149.367 31.1 148.1 31.1 146.9V146.1C31.1 145.9 31.1 145.567 31.1 145.1C31.1 144.633 31.1 144.167 31.1 143.7C31.1 141.9 30.5 137.2 29.3 129.6C21.5667 131.133 15.7667 132.633 11.9 134.1C10.7667 134.5 9.93333 134.7 9.4 134.7C8.46667 134.7 7.4 134.167 6.2 133.1C4.73334 131.833 4 130.467 4 129C4 128.933 4 128.8 4 128.6L4.8 128.2C6.46667 129.733 8.03333 130.5 9.5 130.5C10.1667 130.5 14.1333 129.733 21.4 128.2L23.7 127.7L28.9 126.7L28.6 125C27.9333 120.867 27.5 118.2 27.3 117C27.2333 116.4 27.1333 115.767 27 115.1C21.2 116.233 17.4333 117.1 15.7 117.7C14.4333 118.1 13.5667 118.3 13.1 118.3C12.1667 118.3 11.1333 117.867 10 117C8.53333 115.933 7.73334 114.567 7.60001 112.9L8.5 112.5C9.96667 113.833 11.4667 114.5 13 114.5C14.6 114.5 18.9 113.733 25.9 112.2C26.1 112.2 26.3 112.167 26.5 112.1C25.7667 107.5 25.1 104.633 24.5 103.5C24.0333 102.567 23.0333 101.867 21.5 101.4C21.3667 101.4 21 101.3 20.4 101.1L20.5 100.1C21.4333 99.6333 22.3667 99.4 23.3 99.4C24.8333 99.4 26.3667 99.7 27.9 100.3C28.8333 100.767 29.3 101.467 29.3 102.4C29.3 102.733 29.3 103.133 29.3 103.6C29.3 104.133 29.3 104.533 29.3 104.8C29.3 106.067 29.5333 108.267 30 111.4Z" fill="black"/>
<path d="M93.8001 125.4L91.9001 125.9L92.6001 129.3C93.6668 134.633 95.0334 140.967 96.7001 148.3C97.0334 149.5 97.2001 150.433 97.2001 151.1C97.2001 152.033 96.7668 152.5 95.9001 152.5C95.1001 152.5 94.3001 151.767 93.5001 150.3C92.9668 149.3 92.6668 148 92.6001 146.4C92.6001 144.533 91.6001 138.967 89.6001 129.7L88.9001 126.6C87.9668 126.867 86.4334 127.233 84.3001 127.7C81.5668 128.367 79.5668 129.067 78.3001 129.8C77.7668 130.067 77.3334 130.2 77.0001 130.2C76.2001 130.2 75.3001 129.7 74.3001 128.7C73.1668 127.633 72.6001 126.6 72.6001 125.6C72.6001 125.333 72.6334 124.933 72.7001 124.4L73.6001 124.1C74.6001 125.367 75.6001 126 76.6001 126C77.0668 126 79.6334 125.5 84.3001 124.5L85.5001 124.3L88.3001 123.7C87.5001 119.633 86.8668 117.1 86.4001 116.1C85.8001 114.767 84.6668 114 83.0001 113.8V112.8C84.0001 112.2 85.0001 111.9 86.0001 111.9C87.5334 111.9 88.7668 112.267 89.7001 113C90.1001 113.333 90.3001 114.1 90.3001 115.3C90.3001 117.1 90.6668 119.7 91.4001 123.1L93.5001 122.6L95.0001 122.2L100.2 121.1C103.533 120.367 105.4 119.967 105.8 119.9C106.4 119.7 107.167 119.333 108.1 118.8C108.5 118.533 108.833 118.4 109.1 118.4C109.633 118.4 110.367 118.833 111.3 119.7C111.5 119.9 111.8 120.133 112.2 120.4C113 121.133 113.4 121.767 113.4 122.3C113.4 122.9 112.833 123.433 111.7 123.9C111.033 124.167 110.467 124.6 110 125.2C106.133 130.067 103.033 133.367 100.7 135.1L99.9001 134.4C104.767 127.4 107.2 123.5 107.2 122.7C107.2 122.567 107.133 122.5 107 122.5C106.8 122.5 106.533 122.567 106.2 122.7C106 122.7 105.567 122.767 104.9 122.9C104.167 123.033 100.7 123.8 94.5001 125.2L93.8001 125.4Z" fill="black"/>
<path d="M138.8 118L139.5 117.4C142.233 118.867 144.3 120.567 145.7 122.5C146.833 124.033 147.4 125.433 147.4 126.7C147.4 127.567 147.167 128.267 146.7 128.8C146.3 129.267 145.833 129.5 145.3 129.5C144.9 129.5 144.567 129.367 144.3 129.1C143.967 128.767 143.633 127.967 143.3 126.7C142.433 124.033 140.933 121.133 138.8 118ZM151.2 115.1L152 114.5C154.733 116.167 156.733 118 158 120C158.867 121.333 159.3 122.567 159.3 123.7C159.3 124.433 159.1 125.1 158.7 125.7C158.367 126.3 157.833 126.6 157.1 126.6C156.433 126.6 155.933 126.367 155.6 125.9C155.467 125.567 155.3 124.9 155.1 123.9C154.633 121.167 153.333 118.233 151.2 115.1ZM168.9 115.8L169.2 114.9C169.8 114.633 170.3 114.5 170.7 114.5C171.633 114.5 172.733 114.967 174 115.9C175.333 116.9 176 117.8 176 118.6C176 118.933 175.767 119.4 175.3 120C174.9 120.4 174.467 121.333 174 122.8C172.133 127.8 170.233 131.8 168.3 134.8C162.967 143.067 154.967 148.633 144.3 151.5L144 150.6C154.467 145.933 162.033 139.367 166.7 130.9C168.5 127.567 169.867 124.1 170.8 120.5C171 119.7 171.1 119.067 171.1 118.6C171.1 117.667 170.367 116.733 168.9 115.8Z" fill="black"/>
<path d="M222.7 109.1C223.3 109.5 223.8 109.833 224.2 110.1C224.867 110.633 225.2 111.167 225.2 111.7C225.2 112.033 225.167 112.5 225.1 113.1C224.967 113.833 224.767 115.967 224.5 119.5V120V120.5L226.5 120.3C229.433 120.033 231.5 119.867 232.7 119.8C235.7 119.533 238.133 119.2 240 118.8C240.6 118.667 241.067 118.6 241.4 118.6C242.133 118.6 243.3 119 244.9 119.8C246.233 120.467 246.9 121.167 246.9 121.9C246.9 122.767 246.4 123.2 245.4 123.2C245.067 123.2 244.7 123.2 244.3 123.2C241.367 122.867 238.433 122.7 235.5 122.7C232.833 122.7 229.1 122.867 224.3 123.2C223.833 129.067 222.967 133.567 221.7 136.7C218.567 144.233 212.767 149.4 204.3 152.2L203.9 151.4C211.433 146.8 216.4 141 218.8 134C219.667 131.4 220.267 127.933 220.6 123.6C213.467 124.533 207.433 125.8 202.5 127.4C202.033 127.6 201.633 127.7 201.3 127.7C200.033 127.7 198.667 126.867 197.2 125.2C196.2 124.133 195.7 123 195.7 121.8C195.7 121.533 195.767 121.167 195.9 120.7L196.7 120.4C197.367 121.133 197.967 121.667 198.5 122C199.5 122.8 200.667 123.2 202 123.2C203.4 123.2 206.033 122.9 209.9 122.3C213.767 121.7 217.433 121.233 220.9 120.9C221.033 118.5 221.1 116.367 221.1 114.5C221.1 112.3 220.6 110.733 219.6 109.8C212.6 111.2 206.533 111.9 201.4 111.9L201.3 111C210.967 108.933 217.933 107.233 222.2 105.9C225.667 104.9 227.867 104.033 228.8 103.3C229.267 102.967 229.5 102.567 229.5 102.1C229.5 101.767 229.2 101.3 228.6 100.7L229.1 99.9C230.3 99.9 231.5 100.233 232.7 100.9C233.767 101.433 234.733 102.233 235.6 103.3C236.133 103.833 236.4 104.3 236.4 104.7C236.4 105.1 236.233 105.367 235.9 105.5C235.7 105.633 235.033 105.8 233.9 106C233.1 106.133 231.767 106.5 229.9 107.1C227.367 107.9 224.967 108.567 222.7 109.1Z" fill="black"/>
<path d="M301 137.9C303.333 138.433 304.5 139.267 304.5 140.4C304.5 140.867 304.333 141.267 304 141.6C303.667 141.933 303.233 142.1 302.7 142.1C302.367 142.1 301.933 142.033 301.4 141.9C299.933 141.7 297.7 141.6 294.7 141.6C291.567 141.6 287.8 141.833 283.4 142.3C278.667 142.767 274.433 143.4 270.7 144.2C269.9 144.4 269.267 144.5 268.8 144.5C267.733 144.5 266.6 143.8 265.4 142.4C264.333 141.267 263.8 140.2 263.8 139.2C263.8 138.733 263.933 138.2 264.2 137.6L265.1 137.4C266.767 139.267 268.433 140.2 270.1 140.2C270.967 140.2 272.067 140.133 273.4 140C275.467 139.8 281.4 139.3 291.2 138.5C292.4 138.367 294.3 138.2 296.9 138L297.5 137.9C297.767 136.167 298.033 134.4 298.3 132.6C300.1 121.933 301 115.3 301 112.7C301 112.167 300.767 111.9 300.3 111.9C297.3 111.9 292.767 112.233 286.7 112.9C279.5 113.633 274.733 114.3 272.4 114.9C271.133 115.233 270.367 115.4 270.1 115.4C269.1 115.4 268.1 114.867 267.1 113.8C265.833 112.467 265.2 111.1 265.2 109.7C265.2 109.367 265.3 108.9 265.5 108.3L266.4 108C267.133 108.867 267.8 109.533 268.4 110C269.333 110.667 270.4 111 271.6 111C272.667 111 273.933 110.933 275.4 110.8C277.6 110.533 281.3 110.233 286.5 109.9C293.033 109.367 297.033 109 298.5 108.8C299.433 108.733 300.433 108.4 301.5 107.8C302.1 107.467 302.567 107.3 302.9 107.3C303.367 107.3 304.1 107.767 305.1 108.7C306.7 110.167 307.5 111.233 307.5 111.9C307.5 112.3 307.2 112.7 306.6 113.1C305.8 113.7 305.233 114.533 304.9 115.6C304.633 116.333 304.033 119.6 303.1 125.4L301.7 133.2C301.433 134.8 301.2 136.367 301 137.9Z" fill="black"/>
<path d="M336 127.5V127.8V128.2C336 133.867 336.067 137.3 336.2 138.5C336.467 140.967 337.233 142.567 338.5 143.3C340.5 144.367 344.167 144.9 349.5 144.9C353.3 144.9 356.867 144.667 360.2 144.2C361 144.067 362.567 143.6 364.9 142.8C365.367 142.667 365.867 142.6 366.4 142.6C367.333 142.6 368.4 142.933 369.6 143.6C370.533 144.067 371 144.633 371 145.3C371 146.1 370.433 146.667 369.3 147C366.3 147.867 360.4 148.3 351.6 148.3C345.133 148.3 340.633 147.833 338.1 146.9C335.167 145.767 333.4 143.467 332.8 140C332.533 138.4 332.4 132.567 332.4 122.5C332.4 113.433 332.2 108.3 331.8 107.1C331.4 105.7 330.267 104.567 328.4 103.7L328.7 102.8C329.3 102.467 329.867 102.3 330.4 102.3C331.867 102.3 333.467 102.833 335.2 103.9C336.667 104.833 337.4 105.7 337.4 106.5C337.4 106.767 337.233 107.467 336.9 108.6C336.367 110.333 336.067 115.133 336 123V124.8C344.2 122.2 351 119.4 356.4 116.4C359.533 114.533 361.1 113.3 361.1 112.7C361.1 112.033 360.433 111.2 359.1 110.2L359.4 109.4C360 109.267 360.467 109.2 360.8 109.2C362 109.2 363.4 109.867 365 111.2C366.667 112.6 367.5 113.833 367.5 114.9C367.5 115.3 367.367 115.633 367.1 115.9C366.833 116.033 366.167 116.3 365.1 116.7C364.5 116.833 363.167 117.4 361.1 118.4C351.967 122.533 343.6 125.567 336 127.5ZM372.5 94.8C374.767 94.8 376.7 95.7 378.3 97.5C379.633 98.9667 380.3 100.7 380.3 102.7C380.3 105.033 379.433 106.967 377.7 108.5C376.233 109.9 374.467 110.6 372.4 110.6C370.067 110.6 368.133 109.7 366.6 107.9C365.267 106.433 364.6 104.667 364.6 102.6C364.6 100.333 365.467 98.4333 367.2 96.9C368.667 95.5 370.433 94.8 372.5 94.8ZM372.3 97.5C370.833 97.5 369.6 98.0667 368.6 99.2C367.733 100.2 367.3 101.367 367.3 102.7C367.3 104.233 367.867 105.5 369 106.5C370 107.433 371.133 107.9 372.4 107.9C373.933 107.9 375.2 107.333 376.2 106.2C377.133 105.2 377.6 104 377.6 102.6C377.6 101.133 377 99.9 375.8 98.9C374.867 97.9667 373.7 97.5 372.3 97.5Z" fill="black"/>
<path d="M388.8 121.7L389.7 121.6C390.3 122.6 390.933 123.3 391.6 123.7C392.4 124.233 393.533 124.5 395 124.5C395.267 124.5 399.3 124.367 407.1 124.1C421.233 123.5 429.2 123.067 431 122.8C431.8 122.667 432.367 122.6 432.7 122.6C434.1 122.6 435.7 123.1 437.5 124.1C438.567 124.7 439.1 125.333 439.1 126C439.1 126.867 438.567 127.3 437.5 127.3C436.967 127.3 436.3 127.233 435.5 127.1C432.833 126.9 429.467 126.8 425.4 126.8C417.6 126.8 410.033 127.033 402.7 127.5C399.3 127.767 396.433 128.167 394.1 128.7C393.567 128.833 393.133 128.9 392.8 128.9C391.933 128.9 391.033 128.333 390.1 127.2C388.967 125.733 388.4 124.467 388.4 123.4C388.4 122.933 388.533 122.367 388.8 121.7Z" fill="black"/>
</svg>
